<svg width="270" height="356" viewBox="0 0 270 356" fill="none" xmlns="http://www.w3.org/2000/svg">
<g filter="url(#filter0_f_114_83)">
<circle cx="178" cy="178" r="28" fill="#004F44"/>
</g>
<circle cx="178" cy="178" r="28" fill="white"/>
<path d="M175.909 169.547L167.5 178L175.909 186.452C175.985 186.552 176.081 186.634 176.192 186.694C176.302 186.753 176.424 186.788 176.549 186.796C176.674 186.804 176.8 186.785 176.917 186.74C177.034 186.695 177.14 186.626 177.228 186.537C177.316 186.447 177.384 186.34 177.427 186.223C177.47 186.105 177.487 185.979 177.477 185.854C177.467 185.729 177.431 185.608 177.37 185.498C177.309 185.389 177.226 185.293 177.125 185.219L170.834 178.875L187.573 178.875C187.805 178.875 188.027 178.783 188.191 178.619C188.355 178.455 188.448 178.232 188.448 178C188.448 177.768 188.355 177.545 188.191 177.381C188.027 177.217 187.805 177.125 187.573 177.125L170.834 177.125L177.125 170.781C177.289 170.616 177.38 170.393 177.379 170.161C177.378 169.929 177.285 169.707 177.121 169.543C176.956 169.379 176.733 169.288 176.501 169.289C176.268 169.29 176.046 169.383 175.883 169.547L175.909 169.547Z" fill="#004F44"/>
<defs>
<filter id="filter0_f_114_83" x="0" y="0" width="356" height="356" filterUnits="userSpaceOnUse" color-interpolation-filters="sRGB">
<feFlood flood-opacity="0" result="BackgroundImageFix"/>
<feBlend mode="normal" in="SourceGraphic" in2="BackgroundImageFix" result="shape"/>
<feGaussianBlur stdDeviation="75" result="effect1_foregroundBlur_114_83"/>
</filter>
</defs>
</svg>
